<?xml version="1.0" encoding="UTF-8" standalone="no"?>
<svg
   xmlns:dc="http://purl.org/dc/elements/1.1/"
   xmlns:cc="http://creativecommons.org/ns#"
   xmlns:rdf="http://www.w3.org/1999/02/22-rdf-syntax-ns#"
   xmlns:svg="http://www.w3.org/2000/svg"
   xmlns="http://www.w3.org/2000/svg"
   xmlns:sodipodi="http://sodipodi.sourceforge.net/DTD/sodipodi-0.dtd"
   xmlns:inkscape="http://www.inkscape.org/namespaces/inkscape"
   inkscape:version="1.0beta1 (32d4812, 2019-09-19)"
   sodipodi:docname="settings_backup_restore_light_gray_24dp.svg"
   id="svg14"
   version="1.1"
   fill="#FFFFFF"
   width="24px"
   viewBox="0 0 24 24"
   height="24px">
  <metadata
     id="metadata20">
    <rdf:RDF>
      <cc:Work
         rdf:about="">
        <dc:format>image/svg+xml</dc:format>
        <dc:type
           rdf:resource="http://purl.org/dc/dcmitype/StillImage" />
        <dc:title></dc:title>
      </cc:Work>
    </rdf:RDF>
  </metadata>
  <defs
     id="defs18" />
  <sodipodi:namedview
     inkscape:current-layer="svg14"
     inkscape:window-maximized="0"
     inkscape:window-y="131"
     inkscape:window-x="1366"
     inkscape:cy="17.411732"
     inkscape:cx="-8.788534"
     inkscape:zoom="4.3844147"
     showgrid="false"
     id="namedview16"
     inkscape:window-height="946"
     inkscape:window-width="2402"
     inkscape:pageshadow="2"
     inkscape:pageopacity="0"
     guidetolerance="10"
     gridtolerance="10"
     objecttolerance="10"
     borderopacity="1"
     inkscape:document-rotation="0"
     bordercolor="#666666"
     pagecolor="#ffffff" />
  <path
     id="path10"
     fill="none"
     d="M0 0h24v24H0z" />
  <path
     style="fill:#cececf;fill-opacity:1"
     inkscape:connector-curvature="0"
     id="path12"
     d="m 15.5,12 c 0,-1.1 -0.9,-2 -2,-2 -1.1,0 -2,0.9 -2,2 0,1.1 0.9,2 2,2 1.1,0 2,-0.9 2,-2 z m -2,-9 c -4.97,0 -9,4.03 -9,9 h -3 l 4,4 4,-4 h -3 c 0,-3.87 3.13,-7 7,-7 3.87,0 7,3.13 7,7 0,3.87 -3.13,7 -7,7 -1.51,0 -2.91,-0.49 -4.06,-1.3 L 8.02,19.14 C 9.54,20.3 11.44,21 13.5,21 c 4.97,0 9,-4.03 9,-9 0,-4.97 -4.03,-9 -9,-9 z" />
</svg>
